<svg width="294" height="98" viewBox="0 0 294 98" fill="none" xmlns="http://www.w3.org/2000/svg">
<g clip-path="url(#clip0_1_5671)">
<rect x="0.5" y="0.5" width="293" height="97" rx="48.5" stroke="white"/>
<path d="M146.814 55.8C146.814 57.9867 146.014 59.8667 144.414 61.44C142.814 62.9867 140.507 63.9467 137.494 64.32V68.8H133.494V64.44C131.521 64.3333 129.641 63.9867 127.854 63.4C126.067 62.8133 124.627 62.0933 123.534 61.24L125.734 56.36C126.747 57.1067 127.934 57.7333 129.294 58.24C130.654 58.7467 132.054 59.0667 133.494 59.2V52.52C131.601 52.0667 130.001 51.56 128.694 51C127.387 50.44 126.294 49.6267 125.414 48.56C124.534 47.4667 124.094 46.0267 124.094 44.24C124.094 42.0267 124.894 40.1333 126.494 38.56C128.121 36.96 130.454 35.9867 133.494 35.64V31.2H137.494V35.56C140.774 35.8267 143.481 36.64 145.614 38L143.614 42.92C141.614 41.7733 139.574 41.08 137.494 40.84V47.64C139.361 48.0667 140.934 48.56 142.214 49.12C143.521 49.6533 144.614 50.4667 145.494 51.56C146.374 52.6267 146.814 54.04 146.814 55.8ZM130.534 43.92C130.534 44.5867 130.787 45.1333 131.294 45.56C131.801 45.9867 132.534 46.3467 133.494 46.64V40.96C132.481 41.2 131.734 41.5867 131.254 42.12C130.774 42.6267 130.534 43.2267 130.534 43.92ZM137.494 59.04C138.454 58.8267 139.174 58.48 139.654 58C140.134 57.52 140.374 56.9467 140.374 56.28C140.374 55.6133 140.121 55.0667 139.614 54.64C139.134 54.2133 138.427 53.84 137.494 53.52V59.04ZM159.491 36V64H153.011V41.2H147.411V36H159.491ZM184.875 58.72V64H163.715V59.8L174.515 49.6C175.662 48.5067 176.435 47.5733 176.835 46.8C177.235 46 177.435 45.2133 177.435 44.44C177.435 43.32 177.049 42.4667 176.275 41.88C175.529 41.2667 174.422 40.96 172.955 40.96C171.729 40.96 170.622 41.2 169.635 41.68C168.649 42.1333 167.822 42.8267 167.155 43.76L162.435 40.72C163.529 39.0933 165.035 37.8267 166.955 36.92C168.875 35.9867 171.075 35.52 173.555 35.52C175.635 35.52 177.449 35.8667 178.995 36.56C180.569 37.2267 181.782 38.1867 182.635 39.44C183.515 40.6667 183.955 42.12 183.955 43.8C183.955 45.32 183.635 46.7467 182.995 48.08C182.355 49.4133 181.115 50.9333 179.275 52.64L172.835 58.72H184.875ZM191.22 64.32C190.126 64.32 189.206 63.9467 188.46 63.2C187.713 62.4533 187.34 61.52 187.34 60.4C187.34 59.2533 187.713 58.3333 188.46 57.64C189.206 56.92 190.126 56.56 191.22 56.56C192.313 56.56 193.233 56.92 193.98 57.64C194.726 58.3333 195.1 59.2533 195.1 60.4C195.1 61.52 194.726 62.4533 193.98 63.2C193.233 63.9467 192.313 64.32 191.22 64.32ZM207.208 46.52C211.155 46.52 214.062 47.3067 215.928 48.88C217.822 50.4533 218.768 52.56 218.768 55.2C218.768 56.9067 218.342 58.4667 217.488 59.88C216.635 61.2667 215.328 62.3867 213.568 63.24C211.835 64.0667 209.688 64.48 207.128 64.48C205.155 64.48 203.208 64.2267 201.288 63.72C199.395 63.1867 197.782 62.44 196.448 61.48L199.008 56.52C200.075 57.32 201.302 57.9467 202.688 58.4C204.075 58.8267 205.502 59.04 206.968 59.04C208.595 59.04 209.875 58.72 210.808 58.08C211.742 57.44 212.208 56.5467 212.208 55.4C212.208 54.2 211.715 53.2933 210.728 52.68C209.768 52.0667 208.088 51.76 205.688 51.76H198.528L199.968 36H217.048V41.2H205.368L204.928 46.52H207.208ZM232.998 64.48C230.678 64.48 228.611 63.9067 226.798 62.76C224.984 61.6133 223.558 59.96 222.518 57.8C221.504 55.6133 220.998 53.0133 220.998 50C220.998 46.9867 221.504 44.4 222.518 42.24C223.558 40.0533 224.984 38.3867 226.798 37.24C228.611 36.0933 230.678 35.52 232.998 35.52C235.318 35.52 237.384 36.0933 239.198 37.24C241.011 38.3867 242.424 40.0533 243.438 42.24C244.478 44.4 244.998 46.9867 244.998 50C244.998 53.0133 244.478 55.6133 243.438 57.8C242.424 59.96 241.011 61.6133 239.198 62.76C237.384 63.9067 235.318 64.48 232.998 64.48ZM232.998 59C234.704 59 236.038 58.2667 236.998 56.8C237.984 55.3333 238.478 53.0667 238.478 50C238.478 46.9333 237.984 44.6667 236.998 43.2C236.038 41.7333 234.704 41 232.998 41C231.318 41 229.984 41.7333 228.998 43.2C228.038 44.6667 227.558 46.9333 227.558 50C227.558 53.0667 228.038 55.3333 228.998 56.8C229.984 58.2667 231.318 59 232.998 59Z" fill="white"/>
<circle cx="49" cy="49" r="49" fill="#FFC107"/>
<path fill-rule="evenodd" clip-rule="evenodd" d="M50.9863 35.5924C50.887 34.8755 50.2594 34.3229 49.5 34.3229C48.6716 34.3229 48 34.9805 48 35.7917V48.0313H35.5L35.2965 48.0447C34.5643 48.1419 34 48.7564 34 49.5C34 50.3112 34.6716 50.9688 35.5 50.9688H48V63.2083L48.0137 63.4076C48.113 64.1245 48.7406 64.6771 49.5 64.6771C50.3284 64.6771 51 64.0195 51 63.2083V50.9688H63.5L63.7035 50.9553C64.4357 50.8581 65 50.2436 65 49.5C65 48.6888 64.3284 48.0313 63.5 48.0313H51V35.7917L50.9863 35.5924Z" fill="#212121"/>
</g>
<defs>
<clipPath id="clip0_1_5671">
<rect width="294" height="98" fill="white"/>
</clipPath>
</defs>
</svg>
