<svg width="269" height="293" viewBox="0 0 269 293" fill="none" xmlns="http://www.w3.org/2000/svg">
<path d="M98.5229 131.492C117.555 135.274 137.127 135.844 156.459 134.899C165.985 134.436 175.491 133.593 184.956 132.555C187.404 132.288 189.984 132.206 192.386 131.677C194.93 131.117 195.668 129.221 196.457 126.903C196.457 126.852 196.488 126.805 196.503 126.754C175.844 129.393 154.976 129.937 134.211 128.378C124.033 127.634 113.908 126.399 103.836 124.673C98.4568 123.753 91.1136 122.91 87.5158 118.275C87.3462 120.442 87.518 122.622 88.0247 124.734C89.2511 129.56 94.2941 130.649 98.5229 131.492Z" fill="#BE1E2D"/>
<path d="M70.8482 206.931C70.2281 211.153 69.2979 215.62 69.6545 219.914C70.0989 225.033 73.6905 228.69 79.1528 227.289C84.0622 226.031 86.8579 221.416 89.1007 217.311C89.143 217.241 89.1896 217.173 89.2402 217.107C88.2067 190.47 87.6434 163.73 88.3462 137.092C84.1862 144.314 82.2793 152.794 80.2173 160.745C77.6162 170.769 75.3769 180.87 73.4993 191.05C72.514 196.334 71.6303 201.627 70.8482 206.931Z" fill="#F7941E"/>
<path fill-rule="evenodd" clip-rule="evenodd" d="M89.2978 106.782C93.5515 108.233 97.7643 109.557 102.033 110.681C101.115 100.735 102.113 90.2848 103.06 80.3767L103.06 80.376C103.103 79.9312 103.145 79.4875 103.187 79.045C103.291 77.9635 103.391 76.8706 103.492 75.7695C104.298 66.9869 105.153 57.6794 108.079 49.4531C109.407 45.7235 111.419 41.345 114.937 39.1788C117.746 37.4468 121.188 37.7891 123.276 40.4049C125.436 43.1128 125.416 46.9497 125.319 50.2246C125.145 54.8773 124.956 59.5283 124.752 64.1776C130.671 62.7623 137.069 62.3996 143.064 62.2208C149.323 62.0627 155.585 62.4043 161.79 63.2426C162.872 56.0541 166.074 48.3343 171.834 43.828C174.387 41.8253 177.686 41.1458 180.49 43.0821C183.625 45.2484 184.263 49.213 184.141 52.7485C183.903 59.6528 183.378 66.5639 182.854 73.4743C182.59 76.9547 182.326 80.4349 182.098 83.914C181.417 94.173 180.718 104.432 179.999 114.691L184.227 114.502C186.75 114.374 189.273 114.236 191.795 114.073C191.93 114.064 192.063 114.056 192.196 114.047C193.986 113.935 195.635 113.832 197.147 112.724C197.302 112.613 197.475 112.528 197.658 112.474C210.22 94.1679 214.208 70.5792 207.758 49.2539C206.134 43.8791 203.964 38.5248 200.323 34.1463C197.193 30.4013 193.399 27.1469 189.6 24.1018C181.609 17.633 172.666 12.4419 163.087 8.71325C144.959 1.80065 124.686 1.34083 107.298 10.6343C91.0901 19.3197 78.8703 34.9331 75.2345 53.0397C71.4608 71.8412 76.8073 92.0834 89.2365 106.644C89.2592 106.689 89.2796 106.735 89.2978 106.782ZM197.606 84.2001C197.234 84.8489 196.36 84.3789 196.473 83.7198C196.611 82.9109 196.77 82.1216 196.927 81.3407L196.927 81.3404C197.412 78.9254 197.881 76.5915 197.688 74.0126C197.688 73.7867 197.855 73.5955 198.078 73.5658C198.302 73.536 198.513 73.6769 198.572 73.895C199.22 77.1955 199.358 81.1755 197.606 84.2001ZM194.982 43.4602C190.835 34.4835 183.206 29.1087 174.265 25.4455V25.4557C174.03 25.3587 173.897 25.7316 174.096 25.8491C175.029 26.4368 175.976 27.0101 176.923 27.5841C180.318 29.6401 183.727 31.7054 186.582 34.4733C189.459 37.3158 191.774 40.677 193.404 44.3798C195.142 48.3376 196.273 52.5351 196.759 56.8307C197.067 59.3778 197.061 61.9155 197.055 64.4564C197.051 66.1253 197.047 67.7955 197.132 69.4706C197.137 69.7729 197.362 70.026 197.662 70.0668C197.961 70.1076 198.245 69.9239 198.332 69.6341C200.41 61.342 198.5 51.0829 194.982 43.4602Z" fill="#88E0FF"/>
<path d="M177.173 178.223C176.259 182.62 174.269 184.839 169.685 185.348C163.56 186.045 157.231 186.009 151.055 186.233C138.406 186.691 125.559 187.409 112.905 186.874C109.174 186.717 105.06 186.162 102.069 183.734C98.3889 180.742 98.2817 176.156 98.5573 171.785C99.2974 159.865 99.619 147.702 101.171 135.839C98.0367 135.33 94.8108 134.734 91.9218 133.508C92.0217 133.744 92.0721 133.999 92.0698 134.256C92.0722 134.279 92.0722 134.303 92.0698 134.327C92.0748 134.373 92.0748 134.419 92.0698 134.464C92.0698 149.799 91.9422 165.128 92.1617 180.462C92.5598 207.91 93.6555 235.338 95.4488 262.746C95.6836 266.253 95.9082 269.764 96.1787 273.271C96.4135 276.228 96.6891 279.617 98.7308 281.923C101.344 284.839 105.014 283.959 106.898 280.793C108.475 278.136 108.47 274.777 108.679 271.795C109.635 258.298 110.574 244.803 111.497 231.309C107.985 230.164 104.667 228.496 101.656 226.363C100.543 225.548 101.181 223.34 102.676 223.94C107.515 225.894 112.221 227.849 117.336 228.999C122.55 230.136 127.868 230.742 133.205 230.806C138.855 230.88 144.505 230.656 150.131 230.134C155.383 229.681 160.661 229.477 165.622 227.62C167.271 227.004 168.088 229.192 167.153 230.281C166.329 231.227 165.274 231.946 164.091 232.368C165.03 247.931 166.99 263.332 170.726 278.493C171.426 281.358 171.855 286.259 174.585 287.989C178.276 290.325 180.404 284.345 181.134 281.719C182.89 275.398 182.594 268.406 182.915 261.901C183.596 247.882 184.295 233.861 185.013 219.838C186.422 191.948 187.868 164.064 189.352 136.185C186.8 136.47 184.248 136.739 181.726 136.994C181.472 150.846 179.948 164.647 177.173 178.223Z" fill="#F7941E"/>
<path d="M187.547 118.035C182.538 118.325 177.526 118.546 172.511 118.698C162.483 119.001 152.452 119.04 142.418 118.814C124.877 118.414 105.38 117.681 89.127 110.211C88.8583 111.517 88.5846 112.858 88.3463 114.214C88.5513 114.323 88.7256 114.481 88.8533 114.675C91.0332 117.903 94.4602 119.229 98.1407 120.084C102.277 121.016 106.526 121.603 110.723 122.205C120.254 123.598 129.839 124.541 139.478 125.034C158.492 125.978 177.553 125.289 196.449 122.974C196.711 122.938 196.977 122.959 197.23 123.035C197.491 120.88 197.445 118.699 197.093 116.557C194.31 118.085 190.66 117.838 187.547 118.035Z" fill="#BE1E2D"/>
<path d="M192.892 135.3L192.657 135.341C191.717 153.408 190.767 171.456 189.806 189.486L189.352 198.046C194.678 206.365 198.986 216.746 207.216 222.59C211.169 225.392 219.482 228.333 221.873 222.13C224.035 216.505 219.289 209.607 217.116 204.601C207.42 182.479 199.315 159.72 192.861 136.491C192.743 136.101 192.754 135.684 192.892 135.3Z" fill="#F7941E"/>
<path d="M115.184 84.1391C115.084 84.5446 115.328 84.9553 115.758 85.1076C116.384 85.2312 117.003 84.5512 116.946 84.036C116.909 83.772 116.781 83.5251 116.579 83.3303C115.942 83.4745 115.322 83.7012 115.184 84.1391Z" fill="white"/>
<path fill-rule="evenodd" clip-rule="evenodd" d="M111.538 48.7568C112.503 46.4003 116.993 37.9505 119.896 42.5818C121.255 44.757 121.019 47.8916 120.816 50.5831C120.767 51.2375 120.719 51.8657 120.697 52.4475C120.652 53.5055 120.606 54.5638 120.56 55.6222L120.56 55.6281L120.56 55.6339C120.42 58.8674 120.279 62.1023 120.156 65.3344C120.096 66.0104 120.452 66.6554 121.054 66.965C121.335 67.2332 121.721 67.3592 122.106 67.3075C124.393 67.0932 126.662 66.8152 128.929 66.5375L128.929 66.5375L128.929 66.5374C133.205 66.0136 137.47 65.491 141.821 65.4008C148.648 65.247 155.475 65.6676 162.231 66.6583C162.806 66.799 163.413 66.672 163.884 66.3127C164.355 65.9534 164.638 65.4004 164.655 64.8078C164.982 61.1482 165.975 57.5793 167.584 54.2776C169.074 51.2514 171.212 47.4687 174.217 45.7358C179.386 42.7556 179.661 50.822 179.483 53.7766C179.316 56.4724 179.122 59.1661 178.928 61.859L178.928 61.8609L178.927 61.869L178.927 61.8696C178.823 63.3092 178.72 64.7486 178.62 66.188C178.342 70.1953 178.061 74.2027 177.78 78.21L177.78 78.2135C176.937 90.2356 176.094 102.258 175.329 114.28C173.395 114.351 171.456 114.423 169.523 114.474C160.015 114.733 150.499 114.76 140.974 114.556C132.101 114.367 123.203 113.988 114.401 112.767C111.008 112.296 107.696 111.657 104.436 110.88C104.819 106.542 104.949 102.173 105.08 97.8018C105.197 93.9013 105.313 89.9999 105.609 86.1189C106.293 77.1733 107.319 68.243 108.814 59.3996C109.421 55.7907 110.151 52.1562 111.538 48.7568ZM111.273 83.5017C110.88 85.7866 112.579 88.2096 114.962 88.3425C117.415 88.4373 119.502 86.5679 119.682 84.1151C119.794 81.8454 117.6 78.6557 115.018 79.586C114.55 79.7463 114.192 80.1296 114.064 80.6084C112.697 81.0173 111.559 81.8915 111.273 83.5017ZM153.419 84.478C153.565 83.6078 153.987 82.8081 154.623 82.1982C155.74 81.1339 157.316 80.7019 158.818 81.048C161.721 81.7688 163.042 85.5208 161.41 87.9591C159.695 90.515 155.465 90.4793 153.878 87.7956C153.309 86.7886 153.145 85.6021 153.419 84.478ZM131.78 88.8844C131.856 87.3713 129.433 87.0186 129.121 88.5214C129.083 88.7141 129.042 88.9138 129 89.1194C128.487 91.6413 127.791 95.0563 128.749 97.4006C129.698 99.6958 132.652 100.161 134.8 99.6958C139.673 98.6377 142.913 92.2939 140.464 87.7854C139.704 86.3898 137.811 87.1617 137.688 88.5419C137.645 89.0286 137.623 89.5325 137.601 90.0398C137.49 92.6066 137.375 95.262 134.392 96.2351C133.784 96.4765 133.115 96.5142 132.484 96.3425C131.761 96.0584 131.769 95.6118 131.781 94.9627C131.784 94.8059 131.787 94.6373 131.78 94.4562C131.703 92.6007 131.688 90.74 131.78 88.8844Z" fill="white"/>
<path fill-rule="evenodd" clip-rule="evenodd" d="M106.394 184.468C110.01 185.619 113.995 185.519 117.832 185.423C118.644 185.403 119.449 185.383 120.242 185.375C131.245 185.269 142.239 184.985 153.225 184.524C154.688 184.463 156.161 184.42 157.638 184.377L157.638 184.377L157.638 184.377L157.639 184.377L157.639 184.377L157.639 184.377C161.587 184.262 165.562 184.147 169.447 183.673C171.283 183.453 172.555 183.135 173.678 181.592C174.588 180.342 174.815 179.202 175.107 177.731L175.155 177.491C175.692 174.815 176.177 172.133 176.612 169.443C178.318 158.811 179.29 148.074 179.52 137.308C159.764 139.246 139.859 140.189 120.068 138.508C114.559 138.036 109.077 137.341 103.62 136.421L102.235 136.196C102.198 144.073 101.564 151.982 100.931 159.87L100.931 159.87C100.602 163.973 100.274 168.07 100.03 172.155C99.6963 177.701 100.522 182.597 106.394 184.468ZM131.25 168.43L131.25 168.431L131.197 168.756C131.173 168.902 131.154 169.06 131.135 169.223L131.135 169.223L131.135 169.223L131.135 169.223L131.135 169.223L131.135 169.223C131.069 169.787 130.995 170.416 130.653 170.837C130.054 171.568 128.785 171.472 127.757 171.393C127.465 171.371 127.193 171.35 126.961 171.35C125.766 171.35 124.842 171.181 124.776 169.812C124.71 168.118 124.795 166.421 125.032 164.743C125.089 164.333 125.468 164.302 125.745 164.471C125.861 164.404 125.991 164.367 126.125 164.363C127.807 164.277 129.489 164.536 131.069 165.122C131.483 165.255 131.728 165.682 131.633 166.106C131.502 166.879 131.376 167.656 131.25 168.43ZM146.527 171.95C146.893 171.944 147.213 171.701 147.316 171.35C147.66 169.92 148.096 167.024 146.793 165.917C146.304 165.492 145.6 165.512 144.969 165.53C144.845 165.534 144.724 165.537 144.608 165.537H140.849C140.582 165.541 140.333 165.672 140.18 165.89C140.026 166.109 139.987 166.387 140.075 166.639C140.037 167.078 139.916 167.549 139.793 168.028C139.476 169.26 139.145 170.545 140.198 171.468C140.813 172.022 141.577 172.022 142.352 172.022C143.326 172.018 144.303 171.997 145.278 171.976L145.282 171.976H145.282H145.282C145.697 171.967 146.112 171.957 146.527 171.95ZM151.137 155.68C151.778 150 158.317 145.617 163.774 147.453C163.882 147.489 163.964 147.578 163.99 147.688C166.624 148.936 168.427 151.457 168.754 154.352C169.519 160.098 167.113 167.024 160.261 166.424C154.938 165.968 150.532 161.067 151.137 155.68ZM123.504 149.877C123.342 150.313 123.26 150.775 123.263 151.241C122.924 154.271 122.9 157.329 123.191 160.365C123.199 160.79 123.54 161.133 123.965 161.144C131.706 161.305 139.43 161.708 147.137 162.354C147.636 162.351 148.039 161.946 148.039 161.447C148.063 159.652 148.075 157.858 148.075 156.064C148.077 155.748 148.099 155.41 148.122 155.062C148.179 154.185 148.24 153.25 147.983 152.476C147.537 151.146 146.377 151.083 145.133 151.015C144.905 151.002 144.674 150.99 144.444 150.969C142.263 150.777 140.081 150.577 137.898 150.377L137.898 150.377L137.897 150.377L137.897 150.377C133.388 149.964 128.879 149.551 124.386 149.206C123.976 149.21 123.617 149.483 123.504 149.877ZM108.513 148.903C110.677 148.252 113.251 148.816 115.406 149.339C115.797 149.452 116.068 149.808 116.072 150.215C116.055 151.098 116.085 152.036 116.115 152.994C116.185 155.183 116.258 157.474 115.78 159.442C115.303 161.39 113.693 162.4 111.713 162.21C109.974 162.041 107.502 161.211 107.215 159.248C106.825 156.567 107.538 152.855 108.297 150.159C108.09 149.994 107.989 149.729 108.034 149.468C108.079 149.206 108.262 148.99 108.513 148.903ZM107.759 166.019C107.554 165.929 107.322 165.929 107.118 166.019V166.004C104.804 167.009 105.516 171.084 105.938 173.5C105.996 173.832 106.048 174.133 106.087 174.39C106.191 174.776 106.543 175.043 106.943 175.041C109.249 174.955 111.554 174.856 113.86 174.756C114.437 174.731 115.013 174.707 115.59 174.682C116.067 174.676 116.451 174.292 116.457 173.816C116.433 171.461 116.421 169.11 116.421 166.762C116.413 166.31 116.048 165.945 115.595 165.937C115.015 165.912 114.416 165.869 113.808 165.824C111.786 165.677 109.659 165.523 107.759 166.019Z" fill="#BE1E2D"/>
<path d="M125.888 166.673C125.942 167.361 125.966 168.048 125.98 168.741C125.98 168.934 125.859 170.092 125.98 170.182C126.102 170.271 126.81 170.182 127.057 170.182C127.542 170.22 128.029 170.22 128.513 170.182C128.775 170.299 128.945 170.252 128.998 170.04C129.051 169.828 129.085 169.499 129.124 169.226C129.236 168.514 129.352 167.813 129.464 167.092C128.305 166.757 127.096 166.615 125.888 166.673Z" fill="white"/>
<path d="M158.874 85.7126C159.085 85.1888 158.903 84.5921 158.434 84.2653C158.063 84.1591 157.663 84.2741 157.41 84.5597C157.355 84.671 157.306 84.7857 157.266 84.9031C157.119 85.1837 157.148 85.5213 157.341 85.7739C157.799 86.1217 158.447 86.0958 158.874 85.7126Z" fill="white"/>
<path d="M161.254 156.804C162.137 156.804 162.883 155.692 162.367 154.887C161.889 154.18 161.168 154.37 160.504 154.116C159.978 154.467 159.738 155.126 159.91 155.742C160.082 156.359 160.626 156.789 161.254 156.804Z" fill="white"/>
<path d="M145.48 167.591C144.119 167.513 142.725 167.591 141.364 167.591C141.394 167.869 141.394 168.149 141.364 168.426C141.292 169.092 140.912 169.949 141.176 170.599C141.507 171.411 143.133 171.075 143.877 171.058L146.318 171.002C146.445 170.319 146.478 169.622 146.417 168.93C146.329 168.056 146.379 167.647 145.48 167.591Z" fill="white"/>
<path fill-rule="evenodd" clip-rule="evenodd" d="M158.254 150.035C169.484 146.561 169.994 166.995 159.275 164.686C155.36 163.841 152.384 160.362 152.731 156.451C152.987 153.803 155.074 151.317 157.698 149.932C157.851 150.058 158.063 150.097 158.254 150.035ZM159.883 154.019C159.062 154.281 158.422 154.906 158.162 155.7H158.173C157.951 156.542 158.13 157.436 158.662 158.138C159.194 158.84 160.023 159.277 160.924 159.331C161.885 159.323 162.787 158.885 163.366 158.147C163.945 157.409 164.135 156.454 163.879 155.562C163.425 154.24 161.082 152.717 159.883 154.019Z" fill="white"/>
<path d="M146.275 160.388C146.415 158.076 146.792 154.474 145.64 153.124C144.364 151.64 140.573 151.973 138.662 151.796C134.054 151.376 129.436 150.984 124.829 150.532C124.713 150.753 124.582 150.966 124.436 151.167C124.35 151.287 124.234 151.38 124.101 151.435C124.261 154.124 124.333 156.786 124.54 159.458C131.799 159.505 139.044 159.815 146.275 160.388Z" fill="white"/>
<path d="M110.86 160.367C112.164 160.568 113.852 159.295 114.124 158.048C114.216 157.192 114.233 156.329 114.176 155.47L114.268 151.048C112.728 150.759 111.137 150.738 109.587 150.532C109.249 153.331 107.688 159.898 110.86 160.367Z" fill="white"/>
<path d="M115.123 172.668C115.123 170.798 115.136 168.926 115.162 167.053C113.213 167.065 111.266 166.934 109.337 166.661C109.192 166.768 109.018 166.832 108.836 166.846C108.49 166.867 108.142 166.836 107.805 166.756C106.654 168.039 107.221 171.082 107.557 172.933C110.078 172.82 112.6 172.731 115.123 172.668Z" fill="white"/>
<path fill-rule="evenodd" clip-rule="evenodd" d="M71.2226 183.977C69.2748 193.709 67.6623 203.499 66.3853 213.349C65.5578 219.741 65.4506 228.18 72.5558 231.086C79.3699 233.875 85.3258 229.681 89.2692 224.373C89.3237 225.71 89.3816 227.048 89.4429 228.388C90.1069 243.687 90.8476 259.027 92.1348 274.29C92.569 279.451 93.8562 285.548 99.3524 287.615C104.246 289.452 108.812 286.042 110.59 281.599C111.76 278.703 111.948 275.478 112.131 272.354L112.131 272.353L112.131 272.352L112.131 272.351L112.131 272.351L112.131 272.35L112.131 272.349C112.166 271.763 112.2 271.181 112.24 270.606C112.546 266.324 112.849 262.042 113.149 257.76C113.735 249.498 114.326 241.241 114.922 232.989C121.051 234.547 127.523 235.096 133.479 235.224C139.712 235.286 145.944 234.992 152.144 234.343C153.004 234.263 153.982 234.222 155.02 234.177C156.757 234.104 158.664 234.023 160.48 233.742C160.892 248.583 162.817 263.344 166.226 277.797C166.371 278.426 166.512 279.103 166.66 279.811C167.738 284.99 169.153 291.79 174.91 292.887C180.718 293.987 183.711 286.78 184.773 282.311C185.988 277.212 186.165 271.82 186.339 266.514L186.339 266.513C186.398 264.745 186.455 262.986 186.551 261.251C186.98 253.346 187.411 245.445 187.843 237.549C188.436 226.665 189.015 215.777 189.58 204.885C192.808 211.232 196.507 217.568 201.298 222.627C206.089 227.686 215.529 233.132 222.21 228.088C229.255 222.767 224.907 213.21 221.732 206.233L221.731 206.233C221.235 205.142 220.767 204.114 220.376 203.175C216.096 192.894 212.112 182.495 208.424 171.976C204.281 160.22 200.629 148.315 197.186 136.35C197.067 135.891 196.776 135.494 196.374 135.241C196.585 135.12 196.79 134.987 196.987 134.844C198.734 133.551 199.622 131.495 200.363 129.52C202.174 124.607 202.413 119.255 201.048 114.201C212.995 97.1101 217.245 75.1896 213.082 54.8215C210.799 43.6857 206.242 33.9546 197.758 26.244C189.815 18.9288 180.808 12.8512 171.043 8.21704C152.144 -0.618317 130.297 -3.27503 110.728 4.96994C92.9572 12.4617 78.5475 27.6945 72.7806 46.1134C66.0993 67.4282 71.3299 91.6745 85.8315 108.592C84.1814 113.479 83.581 118.656 84.0692 123.789C84.3604 127.082 85.6016 129.897 87.9513 131.887C82.8025 138.427 80.417 146.412 78.2461 154.352C75.5491 164.147 73.2079 174.022 71.2226 183.977ZM184.758 220.367C184.05 234.391 183.35 248.412 182.659 262.432C182.584 263.951 182.542 265.496 182.5 267.054V267.054C182.363 272.166 182.223 277.406 180.876 282.25C180.146 284.877 178.016 290.857 174.323 288.521C172.098 287.112 171.4 283.614 170.84 280.807C170.712 280.166 170.591 279.56 170.461 279.024C166.737 263.862 164.776 248.461 163.82 232.898C165.005 232.475 166.06 231.757 166.885 230.811C167.794 229.722 166.977 227.533 165.353 228.149C161.034 229.765 156.476 230.129 151.904 230.495L151.899 230.495C151.216 230.55 150.533 230.605 149.85 230.663C144.227 231.197 138.58 231.433 132.932 231.371C127.591 231.307 122.27 230.702 117.052 229.564C112.194 228.47 107.688 226.649 103.093 224.793L103.093 224.792L102.381 224.505C100.88 223.905 100.241 226.113 101.36 226.928C104.374 229.061 107.694 230.729 111.208 231.875C110.272 245.372 109.332 258.868 108.388 272.362C108.362 272.741 108.339 273.127 108.315 273.517C108.155 276.188 107.983 279.041 106.606 281.36C104.731 284.525 101.058 285.406 98.4329 282.49C96.354 280.164 96.0884 276.774 95.8789 273.837C95.6082 270.331 95.3681 266.819 95.1485 263.312C93.3335 235.921 92.2369 208.492 91.8589 181.026C91.7061 170.352 91.7289 159.68 91.7517 149.008V149.008C91.7617 144.348 91.7717 139.687 91.767 135.027C91.7721 134.981 91.7721 134.935 91.767 134.889C91.7695 134.866 91.7695 134.842 91.767 134.818C91.7693 134.561 91.7189 134.307 91.6189 134.07C94.51 135.296 97.7485 135.892 100.875 136.401C99.732 145.247 99.2511 154.259 98.7733 163.213L98.7733 163.213L98.7733 163.214L98.7733 163.214L98.7733 163.214L98.7733 163.214L98.7733 163.214L98.7732 163.215C98.6103 166.269 98.4476 169.316 98.2593 172.348C97.9834 176.72 98.0907 181.305 101.774 184.298C104.767 186.726 108.884 187.281 112.618 187.438C123.16 187.883 133.851 187.46 144.428 187.042H144.428H144.428H144.429H144.429H144.429H144.429H144.43C146.557 186.958 148.679 186.874 150.795 186.797C152.42 186.738 154.055 186.697 155.694 186.656C160.287 186.541 164.91 186.425 169.439 185.911C174.036 185.403 176.018 183.189 176.933 178.786C179.714 165.212 181.244 151.413 181.504 137.561L181.507 137.561C184.06 137.307 186.613 137.052 189.136 136.752C187.641 164.612 186.182 192.484 184.758 220.367ZM103.72 136.844L102.341 136.62C102.303 144.513 101.66 152.437 101.019 160.346L101.019 160.347L101.019 160.347L101.019 160.347L101.019 160.347L101.019 160.348L101.019 160.348C100.694 164.352 100.369 168.352 100.124 172.343C99.7917 177.84 100.614 182.7 106.463 184.558C110.059 185.714 114.005 185.61 117.795 185.51C118.624 185.488 119.445 185.467 120.254 185.459C131.213 185.353 142.163 185.072 153.104 184.614C154.561 184.553 156.027 184.51 157.498 184.468L157.501 184.468H157.501C161.433 184.354 165.391 184.239 169.26 183.769C171.089 183.55 172.356 183.229 173.475 181.702C174.379 180.462 174.604 179.338 174.891 177.903C174.909 177.814 174.927 177.723 174.946 177.631C175.477 174.978 175.96 172.314 176.396 169.64C178.096 159.084 179.064 148.423 179.293 137.734C159.622 139.648 139.813 140.595 120.101 138.915C114.608 138.447 109.148 137.756 103.72 136.844ZM217.107 205.18C217.544 206.205 218.087 207.309 218.656 208.466C220.855 212.939 223.441 218.196 221.761 222.627C219.421 228.801 211.289 225.874 207.422 223.085C201.4 218.745 197.528 211.87 193.776 205.208C192.512 202.965 191.262 200.746 189.948 198.656L190.392 190.136C191.332 172.153 192.262 154.189 193.181 136.243L193.411 136.202C193.279 136.58 193.269 136.989 193.38 137.373C199.693 160.499 207.622 183.157 217.107 205.18ZM196.997 123.351C197.261 123.315 197.529 123.336 197.784 123.413C198.054 121.245 198.014 119.05 197.666 116.893C195.39 118.136 192.559 118.225 189.905 118.309C189.266 118.329 188.636 118.349 188.027 118.384C182.984 118.679 177.934 118.902 172.877 119.051C162.767 119.356 152.659 119.395 142.556 119.168C124.882 118.771 105.237 118.033 88.8605 110.516C88.5847 111.829 88.314 113.178 88.0739 114.542C88.2805 114.651 88.4561 114.81 88.5847 115.005C90.7914 118.252 94.2342 119.611 97.9426 120.445C101.679 121.285 105.506 121.838 109.306 122.387C109.744 122.451 110.183 122.514 110.621 122.578C120.241 123.966 129.898 124.914 139.593 125.423C158.752 126.372 177.957 125.679 196.997 123.351ZM121.414 67.7183C121.694 67.9853 122.082 68.1108 122.466 68.0592C124.756 67.8459 127.028 67.5691 129.297 67.2926L129.297 67.2926L129.297 67.2926L129.297 67.2925C133.577 66.7709 137.847 66.2507 142.203 66.1609C149.037 66.0077 155.872 66.4265 162.635 67.4129C163.211 67.553 163.819 67.4265 164.29 67.0688C164.761 66.7111 165.045 66.1604 165.062 65.5705C165.389 61.9268 166.383 58.3735 167.994 55.0861C169.49 52.0732 171.631 48.3069 174.634 46.5816C179.809 43.6144 180.084 51.6711 179.906 54.5874C179.739 57.2716 179.545 59.9537 179.35 62.6351L179.35 62.6369L179.35 62.6371L179.35 62.6373L179.35 62.6376C179.246 64.0734 179.142 65.509 179.042 66.9447C178.812 70.2476 178.58 73.5506 178.349 76.8535L178.344 76.9214C177.458 89.5564 176.573 102.192 175.748 114.827C173.812 114.898 171.871 114.969 169.935 115.02C160.4 115.285 150.873 115.312 141.355 115.101C132.473 114.913 123.564 114.536 114.753 113.32C111.356 112.852 108.041 112.216 104.777 111.442C105.16 107.123 105.291 102.772 105.422 98.4204V98.4203C105.539 94.5369 105.656 90.6526 105.952 86.7886C106.636 77.882 107.663 68.9754 109.16 60.1858C109.768 56.5926 110.498 52.974 111.887 49.5895C112.853 47.2432 117.348 38.8303 120.254 43.4414C121.62 45.616 121.376 48.7535 121.167 51.4406C121.117 52.0803 121.07 52.6945 121.046 53.2641C121.001 54.3161 120.955 55.3684 120.909 56.4208L120.908 56.4363L120.908 56.4369L120.908 56.4375L120.908 56.438C120.768 59.6569 120.628 62.8772 120.505 66.0947C120.446 66.7701 120.806 67.413 121.414 67.7183ZM106.968 11.0112C90.7556 19.6633 78.5322 35.2168 74.8953 53.2539C71.1205 71.9832 76.4685 92.1478 88.8503 106.658C88.8911 106.708 88.9286 106.761 88.9627 106.816C93.2177 108.261 97.4318 109.579 101.702 110.699C100.783 100.792 101.782 90.3815 102.729 80.5115L102.729 80.5114L102.731 80.4981C102.773 80.0593 102.815 79.6215 102.856 79.1849C102.96 78.1114 103.059 77.027 103.16 75.9346C103.967 67.1758 104.821 57.9061 107.75 49.7066C109.078 45.9912 111.091 41.6295 114.61 39.4716C117.419 37.7463 120.862 38.0872 122.951 40.6931C125.138 43.3905 125.117 47.2127 124.995 50.4751C124.824 55.1099 124.635 59.743 124.428 64.3745C130.348 62.9647 136.748 62.6033 142.745 62.4252C149.006 62.2677 155.269 62.6081 161.476 63.4431C162.559 56.2771 165.762 48.5869 171.523 44.103C174.088 42.1079 177.377 41.431 180.181 43.36C183.323 45.5179 183.956 49.4673 183.834 52.9893C183.6 60.0441 183.058 67.1059 182.516 74.1588C182.264 77.4449 182.011 80.7291 181.79 84.0097C181.12 94.2294 180.42 104.449 179.691 114.669L183.92 114.48C186.444 114.353 188.967 114.216 191.491 114.053C191.625 114.044 191.759 114.036 191.892 114.028C193.682 113.916 195.332 113.813 196.844 112.709C196.999 112.599 197.172 112.514 197.355 112.46C209.92 94.2243 213.91 70.7312 207.458 49.4826C205.834 44.103 203.663 38.7692 200.021 34.433C196.895 30.7024 193.1 27.4808 189.294 24.4271C181.302 17.983 172.355 12.8119 162.773 9.09752C144.64 2.21144 124.361 1.75339 106.968 11.0112ZM87.5018 118.944C90.7818 123.146 97.2857 124.204 102.506 125.054C102.977 125.13 103.437 125.205 103.883 125.28C113.983 126.977 124.147 128.2 134.373 128.95C155.225 130.499 176.18 129.964 196.925 127.352C196.925 127.403 196.9 127.449 196.879 127.499C196.103 129.795 195.347 131.673 192.793 132.228C191.095 132.586 189.308 132.74 187.541 132.892L187.54 132.892C186.799 132.956 186.061 133.02 185.335 133.098C175.819 134.116 166.277 134.961 156.731 135.419C137.32 136.355 117.68 135.79 98.576 132.044C94.3312 131.21 89.2692 130.131 88.0279 125.352C87.5131 123.257 87.3355 121.094 87.5018 118.944ZM88.1194 137.795C88.1195 137.788 88.1197 137.782 88.1199 137.775L88.125 137.785C88.1231 137.789 88.1212 137.792 88.1194 137.795ZM89.0036 217.731C87.9618 191.12 87.4255 164.407 88.1194 137.795C84.4467 144.237 82.5513 151.68 80.7262 158.846C80.5073 159.706 80.2895 160.561 80.0697 161.411C77.5021 171.42 75.2886 181.514 73.4293 191.693C72.4622 196.969 71.5938 202.259 70.8242 207.562C70.7128 208.329 70.5907 209.104 70.4678 209.885C69.9144 213.398 69.3433 217.025 69.6442 220.535C70.0835 225.65 73.6336 229.304 79.0328 227.905C83.8854 226.648 86.6488 222.037 88.8657 217.935C88.9075 217.864 88.9535 217.796 89.0036 217.731Z" fill="#231F20"/>
<path d="M134.842 99.3014C139.521 98.2651 142.632 92.0524 140.28 87.637C139.55 86.2703 137.733 87.0262 137.615 88.3779C137.36 91.2665 137.899 94.7708 134.45 95.9122C133.867 96.1486 133.224 96.1855 132.618 96.0173C131.756 95.6619 131.976 95.0812 131.942 94.17C131.873 92.3528 131.859 90.5306 131.942 88.7133C132.015 87.2115 129.688 86.8861 129.389 88.3579C128.899 90.861 128.032 94.5856 129.027 97.0536C129.928 99.2864 132.78 99.7569 134.842 99.3014Z" fill="#231F20"/>
<path fill-rule="evenodd" clip-rule="evenodd" d="M159.194 80.7599C162.134 81.4844 163.472 85.256 161.819 87.7069C160.083 90.2812 155.8 90.2401 154.194 87.5425C153.618 86.5303 153.451 85.3377 153.729 84.2077C153.876 83.333 154.304 82.5291 154.948 81.9161C156.079 80.8463 157.674 80.412 159.194 80.7599ZM157.484 84.6445C157.439 84.7378 157.399 84.8339 157.366 84.9323C157.245 85.1674 157.269 85.4502 157.428 85.6619C157.804 85.9533 158.337 85.9316 158.688 85.6105C158.862 85.1716 158.712 84.6717 158.327 84.3979C158.021 84.3088 157.692 84.4053 157.484 84.6445Z" fill="#231F20"/>
<path fill-rule="evenodd" clip-rule="evenodd" d="M114.594 80.9388C114.729 80.4582 115.106 80.0733 115.6 79.9125C118.324 78.9785 120.639 82.1807 120.521 84.4591C120.331 86.9214 118.129 88.798 115.541 88.7029C113.027 88.5695 111.224 86.1577 111.649 83.8433C111.95 82.2268 113.151 81.3493 114.594 80.9388ZM115.153 84.2744C115.06 84.6784 115.288 85.0874 115.692 85.2391C116.279 85.3623 116.86 84.6849 116.806 84.1717C116.772 83.9087 116.651 83.6627 116.462 83.4687C115.864 83.6021 115.283 83.8279 115.153 84.2744Z" fill="#231F20"/>
<path d="M173.359 25.5097C177.605 28.2118 182.135 30.6369 185.763 34.1645C188.622 37.0171 190.921 40.3902 192.54 44.1061C194.267 48.0779 195.391 52.2904 195.873 56.6012C196.381 60.8363 196.031 65.0457 196.244 69.2859C196.249 69.5893 196.473 69.8433 196.77 69.8842C197.068 69.9252 197.35 69.7408 197.436 69.45C199.501 61.1439 197.603 50.8331 194.108 43.1833C189.989 34.1747 182.409 28.7809 173.526 25.1047C173.293 25.0073 173.161 25.3815 173.359 25.5097Z" fill="#231F20"/>
<path d="M196.898 73.9705C197.166 77.6123 196.215 80.7818 195.619 84.2824C195.501 84.9826 196.42 85.4819 196.812 84.7926C198.654 81.5796 198.498 77.3517 197.827 73.8294C197.765 73.594 197.538 73.4432 197.3 73.4793C197.061 73.5155 196.888 73.7272 196.898 73.9705Z" fill="#231F20"/>
<path fill-rule="evenodd" clip-rule="evenodd" d="M111.663 162.158C109.948 161.991 107.509 161.172 107.226 159.234C106.841 156.589 107.545 152.927 108.293 150.271C108.086 150.108 107.985 149.845 108.029 149.586C108.074 149.326 108.257 149.112 108.506 149.027C110.641 148.385 113.181 148.951 115.306 149.457C115.692 149.569 115.959 149.92 115.963 150.322C115.946 151.191 115.976 152.116 116.006 153.06C116.075 155.218 116.147 157.48 115.675 159.427C115.204 161.349 113.616 162.345 111.663 162.158ZM111.487 150.721C110.835 150.666 110.185 150.612 109.543 150.524C109.495 150.918 109.422 151.389 109.341 151.908C108.863 154.993 108.121 159.773 110.798 160.175C112.083 160.373 113.747 159.123 114.015 157.899C114.106 157.059 114.123 156.213 114.066 155.37L114.157 151.03C113.27 150.87 112.376 150.795 111.487 150.721Z" fill="#231F20"/>
<path fill-rule="evenodd" clip-rule="evenodd" d="M168.664 154.935C169.405 160.5 167.016 167.206 160.136 166.625C154.775 166.169 150.352 161.423 150.975 156.221C151.619 150.735 158.164 146.476 163.664 148.253C163.772 148.288 163.854 148.375 163.88 148.482C166.525 149.69 168.335 152.131 168.664 154.935ZM157.556 149.822C154.909 151.222 152.803 153.734 152.546 156.409H152.53C152.154 160.361 155.156 163.875 159.147 164.729C169.962 167.062 169.41 146.417 158.117 149.926C157.924 149.99 157.711 149.95 157.556 149.822Z" fill="#231F20"/>
<path fill-rule="evenodd" clip-rule="evenodd" d="M163.664 157.318C163.052 158.115 162.099 158.588 161.083 158.596C160.129 158.541 159.25 158.07 158.686 157.312C158.121 156.553 157.93 155.586 158.165 154.675C158.44 153.818 159.116 153.143 159.983 152.86C161.251 151.454 163.726 153.099 164.206 154.526C164.476 155.489 164.276 156.521 163.664 157.318ZM160.247 153.98C159.913 154.211 159.675 154.555 159.579 154.946C159.488 155.407 159.602 155.884 159.891 156.258C160.18 156.632 160.618 156.867 161.094 156.904C162.092 156.882 162.934 155.694 162.351 154.818C162.002 154.3 161.509 154.225 160.994 154.146C160.746 154.108 160.492 154.07 160.247 153.98Z" fill="#231F20"/>
<path fill-rule="evenodd" clip-rule="evenodd" d="M147.207 162.18C139.547 161.554 131.871 161.17 124.177 161.026C123.757 161.016 123.418 160.691 123.407 160.288C123.118 157.39 123.142 154.471 123.479 151.578C123.476 151.134 123.557 150.693 123.718 150.277C123.831 149.901 124.187 149.64 124.595 149.636C129.174 149.986 133.759 150.386 138.335 150.784C140.403 150.964 142.469 151.143 144.531 151.318C144.76 151.338 144.991 151.35 145.219 151.362C146.459 151.427 147.618 151.488 148.048 152.756C148.301 153.484 148.242 154.364 148.185 155.195C148.162 155.536 148.14 155.869 148.14 156.18C148.116 157.891 148.104 159.603 148.104 161.315C148.104 161.791 147.703 162.178 147.207 162.18ZM125.181 151.431C125.067 151.632 124.938 151.825 124.794 152.008C124.709 152.117 124.594 152.202 124.463 152.253C124.525 153.216 124.574 154.177 124.623 155.139C124.698 156.605 124.773 158.073 124.896 159.549C132.059 159.585 139.209 159.867 146.346 160.395C146.36 160.174 146.377 159.939 146.395 159.695C146.548 157.625 146.749 154.891 145.719 153.788C144.732 152.748 142.295 152.689 140.365 152.643C139.792 152.63 139.264 152.617 138.832 152.58C137.393 152.46 135.954 152.341 134.513 152.223C131.402 151.967 128.289 151.712 125.181 151.431Z" fill="#231F20"/>
<path fill-rule="evenodd" clip-rule="evenodd" d="M126.415 164.885C128.159 164.798 129.902 165.059 131.539 165.65C131.969 165.784 132.223 166.215 132.124 166.643C131.989 167.424 131.858 168.208 131.727 168.989C131.709 169.099 131.69 169.208 131.672 169.317C131.647 169.464 131.628 169.624 131.608 169.789C131.54 170.36 131.463 170.996 131.109 171.417C130.488 172.166 129.158 172.062 128.098 171.979C127.797 171.956 127.517 171.934 127.281 171.934C126.043 171.934 125.086 171.758 125.017 170.382C124.948 168.673 125.037 166.961 125.282 165.267C125.341 164.854 125.734 164.823 126.021 164.993C126.141 164.926 126.276 164.889 126.415 164.885ZM129.875 170.243C129.923 169.948 129.971 169.648 130.014 169.348C130.136 168.567 130.263 167.786 130.412 167.021C129.135 166.644 127.801 166.483 126.468 166.545C126.526 167.3 126.569 168.055 126.569 168.815C126.569 168.867 126.557 168.981 126.541 169.125C126.492 169.57 126.412 170.304 126.569 170.398C126.715 170.486 127.108 170.45 127.421 170.421C127.552 170.409 127.669 170.398 127.749 170.398C128.28 170.44 128.813 170.44 129.344 170.398C129.61 170.527 129.828 170.538 129.875 170.243Z" fill="#231F20"/>
<path fill-rule="evenodd" clip-rule="evenodd" d="M141.533 165.779H145.225C145.34 165.779 145.46 165.775 145.584 165.772C146.203 165.754 146.893 165.735 147.38 166.135C148.649 167.213 148.221 170.028 147.884 171.389C147.782 171.728 147.468 171.962 147.108 171.967C146.689 171.975 146.27 171.984 145.85 171.994C144.903 172.015 143.954 172.037 143.009 172.037C142.248 172.037 141.493 172.022 140.894 171.502C139.86 170.612 140.184 169.372 140.496 168.183C140.617 167.72 140.736 167.266 140.773 166.842C140.687 166.599 140.725 166.33 140.876 166.12C141.027 165.909 141.271 165.782 141.533 165.779ZM144.217 170.464L146.448 170.414C146.561 169.817 146.589 169.208 146.534 168.604C146.529 168.546 146.524 168.491 146.519 168.439C146.458 167.761 146.43 167.447 145.683 167.401C144.853 167.342 144.012 167.362 143.173 167.382C142.755 167.392 142.337 167.401 141.921 167.401C141.949 167.646 141.949 167.894 141.921 168.139C141.901 168.319 141.854 168.516 141.806 168.719C141.698 169.175 141.582 169.66 141.75 170.058C141.988 170.624 142.965 170.549 143.7 170.492C143.896 170.477 144.074 170.464 144.217 170.464Z" fill="#231F20"/>
<path fill-rule="evenodd" clip-rule="evenodd" d="M114.198 174.425C111.753 174.53 109.309 174.634 106.865 174.725C106.444 174.725 106.075 174.447 105.962 174.045C105.922 173.782 105.867 173.475 105.807 173.136C105.357 170.603 104.59 166.287 107.05 165.225C107.266 165.131 107.513 165.131 107.729 165.225C109.744 164.703 111.999 164.866 114.142 165.02C114.787 165.067 115.421 165.113 116.036 165.139C116.516 165.148 116.903 165.532 116.912 166.008C116.937 168.484 116.95 170.959 116.95 173.435C116.944 173.936 116.536 174.341 116.031 174.347C115.42 174.373 114.809 174.399 114.198 174.425ZM108.914 166.629C108.573 166.65 108.23 166.619 107.898 166.537L107.903 166.521C106.782 167.81 107.313 170.867 107.64 172.752C107.645 172.776 107.649 172.801 107.653 172.825C110.139 172.731 112.628 172.641 115.118 172.555C115.143 170.648 115.156 168.743 115.156 166.839C113.233 166.852 111.312 166.718 109.409 166.44C109.266 166.549 109.094 166.615 108.914 166.629Z" fill="#231F20"/>
<circle cx="24.5" cy="28.5" r="24.5" fill="#88AEFF"/>
<ellipse cx="256" cy="82.5" rx="13" ry="12.5" fill="#F27AD8"/>
<circle cx="236.5" cy="259.5" r="6.5" fill="#57C291"/>
</svg>
