<svg width="24" height="24" viewBox="0 0 24 24" fill="none" xmlns="http://www.w3.org/2000/svg">
<path fill-rule="evenodd" clip-rule="evenodd" d="M15.75 2C16.1297 2 16.4435 2.28215 16.4932 2.64823L16.5 2.75V4H17.75C19.2688 4 20.5 5.23122 20.5 6.75V10.75V18.75C20.5 20.2688 19.2688 21.5 17.75 21.5H5.75C4.23122 21.5 3 20.2688 3 18.75V10.75V6.75C3 5.23122 4.23122 4 5.75 4H7V2.75C7 2.33579 7.33579 2 7.75 2C8.1297 2 8.44349 2.28215 8.49315 2.64823L8.5 2.75V4H15V2.75C15 2.33579 15.3358 2 15.75 2ZM19 6.75V10H4.5V6.75C4.5 6.05964 5.05964 5.5 5.75 5.5H7V6.75L7.00685 6.85177C7.05651 7.21785 7.3703 7.5 7.75 7.5C8.16421 7.5 8.5 7.16421 8.5 6.75V5.5H15V6.75L15.0068 6.85177C15.0565 7.21785 15.3703 7.5 15.75 7.5C16.1642 7.5 16.5 7.16421 16.5 6.75V5.5H17.75C18.4404 5.5 19 6.05964 19 6.75ZM19 11.5H4.5V18.75C4.5 19.4404 5.05964 20 5.75 20H17.75C18.4404 20 19 19.4404 19 18.75V11.5ZM9.75 14H7.75C7.33579 14 7 14.3358 7 14.75V16.75C7 17.1642 7.33579 17.5 7.75 17.5H9.75C10.1642 17.5 10.5 17.1642 10.5 16.75V14.75C10.5 14.3358 10.1642 14 9.75 14ZM9 15.5V16H8.5V15.5H9Z" fill="white"/>
</svg>
