<svg width="342" height="560" viewBox="0 0 342 560" fill="none" xmlns="http://www.w3.org/2000/svg">
<path fill-rule="evenodd" clip-rule="evenodd" d="M151.8 123.689C144.356 129.511 136.744 132.817 132.92 132.318C123.329 131.069 118.307 97.2358 123.858 82.9733C129.409 68.7108 165.673 58.3387 170.791 84.6185C172.568 93.7393 169.705 102.425 164.807 109.827L180.921 156.27L151.128 159.928L151.8 123.689Z" fill="#EFBC8C"/>
<path fill-rule="evenodd" clip-rule="evenodd" d="M138.946 65.4683C142.793 64.3436 153.311 62.6037 155.261 62.3646C156.507 62.2116 157.892 62.3299 158.49 61.0977C158.979 60.0886 158.564 58.5347 158.611 57.4277C158.666 56.1417 158.811 54.8612 158.959 53.5834C159.382 49.9473 160.264 46.4291 161.688 43.0527C164.361 36.7182 168.771 31.4719 174.727 28.003C181.303 24.1726 189.075 22.5262 196.617 22.2134C204.687 21.8784 212.244 23.6226 220.093 25.1733C227.572 26.6511 235.217 26.6556 242.595 24.5795C250.029 22.488 255.25 17.6875 261.164 13.0137C267.217 8.22884 274.373 4.70679 282.181 4.35579C289.469 4.02833 296.488 6.18588 302.946 9.42645C308.987 12.4584 314.145 16.3654 317.52 22.3413C321.151 28.7694 322.061 36.2029 318.193 42.7528C312.586 52.2469 300.476 56.011 290.144 57.0533C284.168 57.6565 278.181 57.2895 272.311 56.0055C264.483 54.2929 257.449 50.6248 249.984 47.8647C246.48 46.5695 242.903 45.5917 239.21 45.0244C235.626 44.4735 232.159 44.4447 229.279 46.918C226.232 49.5345 223.526 52.0695 219.9 53.9185C216.421 55.6923 212.655 56.9079 208.772 57.3543C201.217 58.223 193.488 56.7897 185.964 56.1179C179.828 55.5703 173.275 55.0783 167.331 57.0587C164.851 57.8852 161.267 59.4028 160.672 62.153C176.475 63.0507 184.89 81.3844 182.251 95.9256C180.827 103.774 167.772 114.347 161.786 111.048C157.994 108.958 159.703 105.393 160.803 103.043C162.911 98.5426 163.149 93.0649 157.942 90.7511C153.451 88.7556 149.784 95.2541 149.7 95.2577C148.54 95.3085 137.917 90.9221 130.068 83.5816C123.365 84.8101 121.795 80.4932 122.961 76.662C124.128 72.8308 133.629 67.0228 138.946 65.4683Z" fill="#191847"/>
<path fill-rule="evenodd" clip-rule="evenodd" d="M216.117 261.322C213.862 292.035 68.5852 382.457 67.7376 384.994C67.1726 386.686 112.957 491.925 112.957 491.925L100.257 496.849C100.257 496.849 30.0321 385.393 33.6391 373.517C38.8033 356.514 146.358 261.649 146.358 261.649L216.117 261.322Z" fill="#B28B67"/>
<path fill-rule="evenodd" clip-rule="evenodd" d="M109.615 476.08L88.8811 483.612C45.161 434.388 28.0239 393.773 31.1486 373.08C34.2733 352.386 143.478 261.398 143.478 261.398L217.604 261.398C215.075 332.524 80.4213 385.265 78.6203 388.296C76.8192 391.327 94.5437 421.012 109.615 476.08Z" fill="#2F3676"/>
<path fill-rule="evenodd" clip-rule="evenodd" d="M114.292 488.976C115.129 488.16 116.487 488.171 117.244 489.062C118.956 491.076 121.691 494.494 122.467 496.625C123.621 499.797 124.777 506.268 124.777 506.268C121.089 507.61 58.4913 530.394 58.4913 530.394C58.4913 530.394 52.8052 522.811 58.1246 520.105C63.4441 517.399 66.9268 515.511 66.9268 515.511L92.9338 490.412C93.3388 490.022 93.9863 490.042 94.3662 490.457L98.2648 494.72C98.2648 494.72 104.292 495.243 107.514 494.071C109.626 493.302 112.537 490.686 114.292 488.976Z" fill="white"/>
<path fill-rule="evenodd" clip-rule="evenodd" d="M199.413 261.323L264.13 416.357L327.737 547.426H312.73L148.544 261.323H199.413Z" fill="#997659"/>
<path fill-rule="evenodd" clip-rule="evenodd" d="M325.667 539.758C326.733 539.278 328.005 539.752 328.412 540.849C329.332 543.327 330.733 547.474 330.733 549.741C330.733 553.117 329.606 559.594 329.606 559.594C325.682 559.594 259.066 559.594 259.066 559.594C259.066 559.594 256.317 550.523 262.241 549.8C268.165 549.076 272.083 548.493 272.083 548.493L305.106 533.803C305.62 533.574 306.222 533.815 306.437 534.335L308.642 539.674C308.642 539.674 314.127 542.227 317.555 542.227C319.803 542.227 323.433 540.765 325.667 539.758Z" fill="white"/>
<path fill-rule="evenodd" clip-rule="evenodd" d="M321.993 520.198L288.647 526.438C262.865 488.614 154.964 333.521 143.133 261.323H217.368C256.875 313.515 297.417 481.748 321.993 520.198Z" fill="#5C63AB"/>
<path fill-rule="evenodd" clip-rule="evenodd" d="M37.6904 223.777L85.0902 237.966L72.9823 258.089L36.1307 236.453C18.9259 235.435 10.7972 233.744 11.7445 231.379C12.5433 229.385 14.4432 229.045 16.1933 228.732C17.5567 228.488 18.829 228.26 19.419 227.28C20.7663 225.04 16.0472 219.214 11.3319 213.876C6.61664 208.537 10.3912 208.288 12.6709 208.715C20.5092 211.889 28.849 216.91 37.6904 223.777ZM242.785 229.227L267.603 221.067C290.426 264.321 303.764 287.923 307.617 291.87C310.443 294.765 326.46 301.148 337.157 304.294C341.45 305.557 340.997 309.103 339.936 310.349C333.245 318.213 325.935 316.643 317.976 314.933C315.672 314.438 313.314 313.931 310.901 313.638C304.655 312.881 303.193 316.217 301.81 319.371C300.586 322.163 299.426 324.811 295.064 324.347C295.155 323.493 295.277 322.533 295.41 321.497C296.266 314.803 297.529 304.931 293.229 299.813C291.022 297.187 274.207 273.658 242.785 229.227Z" fill="#B28B67"/>
<path fill-rule="evenodd" clip-rule="evenodd" d="M161.369 137.711L150.41 137.192C129.808 162.694 126.943 218.236 112.246 227.346C98.3504 235.959 76.6593 231.938 50.7455 226.095L45.2247 243.977C70.7677 265.555 121.341 280.226 139.374 266.091C168.207 243.493 167.161 175.553 161.369 137.711Z" fill="#D04949"/>
<path fill-rule="evenodd" clip-rule="evenodd" d="M224.689 266.572C224.689 266.572 160.13 274.499 129.712 278.234C125.372 278.766 125.422 272.413 125.662 269.18C128.431 231.873 151.875 189.146 145.51 137.305L172.38 129.655C199.505 163.239 212.838 207.05 224.689 266.572Z" fill="#DDE3E9"/>
<path fill-rule="evenodd" clip-rule="evenodd" d="M173.834 129.476L174.147 129.438C240.235 159.678 284.563 213.692 307.131 291.478L287.701 297.814C272.631 284.102 253.275 261.01 229.635 228.537C238.153 248.801 245.133 269.8 248.986 289.993L163.492 300.491C141.816 260.786 163.3 130.77 163.3 130.77L169.202 130.045L173.834 129.476Z" fill="#FB5858"/>
</svg>
