<svg width="388" height="528" viewBox="0 0 388 528" fill="none" xmlns="http://www.w3.org/2000/svg">
<path fill-rule="evenodd" clip-rule="evenodd" d="M172.653 92.0236C181.351 95.7202 189.558 96.9434 193.123 95.4721C202.064 91.7827 198.158 57.8031 189.105 45.4632C180.052 33.1233 142.339 32.4903 144.197 59.1995C144.841 68.4694 149.855 76.1184 156.501 82.0007L152.957 131.031L182.681 126.854L172.653 92.0236Z" fill="#EFBC8C"/>
<path fill-rule="evenodd" clip-rule="evenodd" d="M175.321 32.5747C171.086 31.9097 165.131 32.3192 162.69 32.9513C163.627 29.3799 163.659 25.5431 162.688 21.948C161.745 18.4548 159.727 15.6511 157.809 12.6857C156.924 11.3188 155.951 9.97257 154.647 9.01528C153.318 8.03997 151.734 7.49565 150.133 7.35475C148.494 7.21047 146.839 7.47427 145.296 8.03098C144.614 8.27724 144.028 8.6867 143.364 8.96193C142.683 9.24389 142.279 8.851 141.704 8.4798C140.319 7.58544 138.434 7.31272 136.845 7.34365C135.062 7.37845 133.279 7.89804 131.688 8.70816C130.139 9.49678 128.704 10.6257 127.713 12.1156C127.272 12.7788 126.891 13.5167 126.686 14.301C126.602 14.6229 126.606 14.8059 126.318 14.96C126.051 15.1027 125.722 15.1519 125.446 15.2908C122.773 16.6336 120.678 19.1344 119.762 22.096C119.227 23.8238 119.267 26.728 119.816 29.9124C120.364 33.0967 124.431 41.0351 127.566 43.6986C130.364 46.0759 134.167 47.3698 137.704 47.6729C135.794 50.5873 134.736 54.0425 134.079 57.4974C133.366 61.2503 133.137 65.078 133.392 68.9092C133.634 72.5493 134.145 76.363 135.487 79.7701C136.742 82.9562 138.816 85.4233 141.884 86.7421C143.289 87.3462 144.766 87.741 146.243 88.0838C147.699 88.4216 149.156 88.7441 150.645 88.8393C153.462 89.0191 156.603 88.4789 158.407 86.0079C159.057 85.1171 159.754 84.0145 160.174 82.9789C160.325 82.6065 160.414 82.3644 160.124 82.0618C159.777 81.6994 159.264 81.4564 158.847 81.1934C156.469 79.6939 154.815 77.4781 154.082 74.6717C153.339 71.8243 153.593 67.9783 156.236 66.3186C159.498 64.2698 163.584 65.521 166.913 66.7547C167.577 61.9382 169.692 57.3883 173.627 54.6688C177.98 51.6601 183.316 50.6297 187.846 47.9365C189.026 47.2347 190.22 46.4587 190.993 45.2581C191.316 44.7564 191.687 44.1122 191.758 43.4987C191.851 42.6928 191.257 42.1116 190.783 41.56C188.274 38.6355 179.556 33.2397 175.321 32.5747Z" fill="#191847"/>
<path fill-rule="evenodd" clip-rule="evenodd" d="M163.592 229.323L256.525 384.357L326.197 515.426H341.204L224.467 229.323L163.592 229.323Z" fill="#997659"/>
<path fill-rule="evenodd" clip-rule="evenodd" d="M319.989 507.758C318.923 507.278 317.65 507.752 317.243 508.849C316.324 511.327 314.923 515.474 314.923 517.741C314.923 521.117 316.05 527.594 316.05 527.594C319.974 527.594 386.59 527.594 386.59 527.594C386.59 527.594 389.339 518.523 383.415 517.8C377.491 517.076 373.573 516.493 373.573 516.493L340.55 501.803C340.036 501.574 339.434 501.815 339.219 502.335L337.013 507.674C337.013 507.674 331.529 510.227 328.101 510.227C325.853 510.227 322.223 508.765 319.989 507.758Z" fill="white"/>
<path fill-rule="evenodd" clip-rule="evenodd" d="M306.847 494.438L335.788 485.702C335.788 485.702 316.768 428.965 289.166 360.829C261.563 292.693 229.877 229.323 229.877 229.323H148.139C148.139 229.323 183.367 309.483 222.831 374.995C262.296 440.507 306.847 494.438 306.847 494.438Z" fill="#D04949"/>
<path fill-rule="evenodd" clip-rule="evenodd" d="M157.485 229.323C148.713 283.803 131.796 353.408 130.2 355.556C129.136 356.988 90.819 369.8 15.2503 393.992L18.492 407.197C108.607 394.222 156.091 384.156 160.942 376.999C168.218 366.262 204.549 281.443 218.621 229.323H157.485Z" fill="#B28B67"/>
<path fill-rule="evenodd" clip-rule="evenodd" d="M41.814 382.577L47.5238 403.845C114.925 409.744 156.223 405.481 171.418 391.058C186.614 376.634 203.932 322.723 223.372 229.323H145.43C133.113 305.805 126.227 345.651 124.771 348.861C123.316 352.072 95.6639 363.311 41.814 382.577Z" fill="#FB5858"/>
<path fill-rule="evenodd" clip-rule="evenodd" d="M21.048 391.06C21.3362 389.927 20.6479 388.756 19.4974 388.546C16.8974 388.07 12.57 387.411 10.3367 387.805C7.01223 388.391 0.830002 390.625 0.830002 390.625C1.51148 394.49 13.0791 460.094 13.0791 460.094C13.0791 460.094 22.4895 461.226 22.1731 455.267C21.8566 449.307 21.7502 445.347 21.7502 445.347L30.483 410.275C30.619 409.729 30.2777 409.178 29.7281 409.057L24.0873 407.811C24.0873 407.811 20.6205 402.854 20.0251 399.477C19.6347 397.264 20.4442 393.435 21.048 391.06Z" fill="white"/>
<path fill-rule="evenodd" clip-rule="evenodd" d="M251.504 119.308L211.818 148.844L230.082 163.615L257.307 130.686C273.126 123.849 280.186 119.481 278.487 117.583C277.054 115.982 275.152 116.312 273.4 116.616C272.035 116.852 270.762 117.073 269.872 116.354C267.84 114.71 270.28 107.622 272.884 100.994C275.489 94.3655 271.856 95.4211 269.86 96.6023C263.581 102.264 257.462 109.833 251.504 119.308ZM299.359 146.2L281.931 159.204L285.664 177.962C285.664 177.962 296.655 167.435 306.766 163.029C319.657 157.411 324.684 153.798 330.068 144.541C332.949 139.589 334.666 130.205 330.917 127.755C329.479 126.815 325.079 130.131 320.589 133.515C317.168 136.094 313.694 138.712 311.44 139.515C308.406 140.596 308.204 136.504 308.043 133.234C307.927 130.887 307.832 128.964 306.726 129.679C301.212 130.551 299.359 146.2 299.359 146.2Z" fill="#997659"/>
<path fill-rule="evenodd" clip-rule="evenodd" d="M190.147 146.553C205.182 144.278 224.814 138.283 244.331 121.701L255.376 139.242C242.655 155.953 223.566 170.898 205.326 172.942C190.951 174.553 181.205 158.3 190.147 146.553Z" fill="#1D1F42"/>
<path fill-rule="evenodd" clip-rule="evenodd" d="M167.565 280.533C152.989 280.682 139.595 280.82 132.016 283.446C119.287 256.334 124.041 237.468 128.43 220.053C131.075 209.557 133.587 199.588 132.059 188.657C127.61 156.825 146.336 104.233 150.104 103.704L151.186 103.552L181.05 99.3548L184.469 98.8743C188.773 118.355 198.327 138.758 207.943 159.293C210.189 164.089 212.438 168.892 214.624 173.692C240.393 175.838 293.081 148.354 293.081 148.354C293.081 148.354 311.142 175.287 311.815 187.742C281.902 209.104 255.291 220.493 232.568 224.192C235.189 237.585 235.348 250.657 231.467 263.168C226.267 279.931 194.845 280.253 167.565 280.533Z" fill="#1D1F42"/>
</svg>
