<svg width="114" height="90" viewBox="0 0 114 90" fill="none" xmlns="http://www.w3.org/2000/svg">
<path fill-rule="evenodd" clip-rule="evenodd" d="M62.5097 64.9658C62.509 64.9712 62.5082 64.9765 62.5068 64.983C62.5085 64.9775 62.5075 64.9571 62.5097 64.9658Z" fill="#C5CFD6"/>
<path fill-rule="evenodd" clip-rule="evenodd" d="M62.507 64.9743C62.5072 64.9753 62.5068 64.9775 62.5072 64.9794C62.506 64.9746 62.5111 64.9578 62.507 64.9743Z" fill="#C5CFD6"/>
<path fill-rule="evenodd" clip-rule="evenodd" d="M62.5202 64.8838C62.5183 64.9049 62.5141 64.9255 62.5112 64.9469C62.5127 64.9362 62.5146 64.9275 62.5161 64.9168C62.4781 65.1943 62.5012 65.0143 62.5202 64.8838Z" fill="#C5CFD6"/>
<path fill-rule="evenodd" clip-rule="evenodd" d="M62.5131 64.9477C62.5114 64.9574 62.5099 64.9681 62.5082 64.9778C62.4936 65.0391 62.5131 64.9477 62.5131 64.9477Z" fill="#C5CFD6"/>
<path fill-rule="evenodd" clip-rule="evenodd" d="M62.5077 64.9744C62.5075 64.9734 62.5075 64.9734 62.5082 64.9722C62.5075 64.9734 62.5075 64.9734 62.5077 64.9744Z" fill="#C5CFD6"/>
<path fill-rule="evenodd" clip-rule="evenodd" d="M62.5048 64.9825C62.5019 64.9956 62.5209 64.9311 62.5048 64.9825V64.9825Z" fill="#C5CFD6"/>
<path fill-rule="evenodd" clip-rule="evenodd" d="M62.5072 64.9745L62.5087 64.9721C62.5079 64.9733 62.5082 64.9743 62.5072 64.9745Z" fill="#C5CFD6"/>
<rect x="0.736359" y="24.9327" width="100" height="66" rx="4" transform="rotate(-14 0.736359 24.9327)" fill="#2B44FF"/>
<path fill-rule="evenodd" clip-rule="evenodd" d="M42.0711 34.491L25.4579 87.072L81.4251 73.1178L42.0711 34.491Z" fill="black" fill-opacity="0.2"/>
<circle cx="82.37" cy="28.1019" r="9.5" transform="rotate(-14 82.37 28.1019)" fill="white"/>
</svg>
