<svg width="396" height="346" viewBox="0 0 396 346" fill="none" xmlns="http://www.w3.org/2000/svg">
<g clip-path="url(#clip0_1_5746)">
<rect x="-1.52588e-05" width="396" height="346" rx="8" fill="white"/>
<path d="M-1.52588e-05 8C-1.52588e-05 3.58172 3.58171 0 7.99998 0H388C392.418 0 396 3.58172 396 8V27H-1.52588e-05V8Z" fill="#2B44FF"/>
<circle cx="13" cy="14" r="4" fill="#F2F2F2"/>
<circle cx="25" cy="14" r="4" fill="#F2F2F2"/>
<circle cx="37" cy="14" r="4" fill="#F2F2F2"/>
<g clip-path="url(#clip1_1_5746)">
<g clip-path="url(#clip2_1_5746)">
<rect x="310" y="132" width="70" height="194" rx="8" fill="white"/>
<g clip-path="url(#clip3_1_5746)">
<rect x="328" y="150" width="34" height="26" rx="4" fill="#DDE3E9"/>
<rect x="328" y="184" width="34" height="25" rx="4" fill="#AFB9C5"/>
<rect x="328" y="217" width="34" height="25" rx="4" fill="#DDE3E9"/>
<rect x="328" y="283" width="34" height="25" rx="4" fill="#DDE3E9"/>
<rect x="328" y="250" width="34" height="25" rx="4" fill="#C5CFD6"/>
</g>
</g>
<rect x="310" y="43" width="70" height="81" rx="8" fill="white"/>
<g clip-path="url(#clip4_1_5746)">
<circle cx="345" cy="74" r="16" fill="#DDE3E9"/>
<rect x="320" y="94" width="50" height="6" rx="3" fill="#DDE3E9"/>
<rect x="328" y="104" width="34" height="6" rx="3" fill="#DDE3E9"/>
</g>
<g clip-path="url(#clip5_1_5746)">
<g clip-path="url(#clip6_1_5746)">
<rect x="16" y="43" width="286" height="47" rx="4" fill="white"/>
<g clip-path="url(#clip7_1_5746)">
<rect x="25" y="57.1" width="228" height="7.05" rx="3" fill="#DDE3E9"/>
<rect x="25" y="68.85" width="153.041" height="7.05" rx="3" fill="#DDE3E9"/>
</g>
<circle cx="271.435" cy="66.5" r="7" fill="#DDE3E9"/>
<circle cx="271.435" cy="66.5" r="3" fill="#F2F2F2"/>
</g>
<g clip-path="url(#clip8_1_5746)">
<rect x="16" y="98" width="286" height="39" rx="4" fill="white"/>
<g clip-path="url(#clip9_1_5746)">
<rect x="25" y="109.7" width="228" height="5.85" rx="2.925" fill="#DDE3E9"/>
<rect x="25" y="119.45" width="153.041" height="5.85" rx="2.925" fill="#DDE3E9"/>
</g>
<circle cx="271.435" cy="117.5" r="7" fill="#DDE3E9"/>
<circle cx="271.435" cy="117.5" r="3" fill="#F2F2F2"/>
</g>
<g clip-path="url(#clip10_1_5746)">
<rect x="16" y="145" width="286" height="39" rx="4" fill="white"/>
<g clip-path="url(#clip11_1_5746)">
<rect x="25" y="156.7" width="228" height="5.85" rx="2.925" fill="#DDE3E9"/>
<rect x="25" y="166.45" width="153.041" height="5.85" rx="2.925" fill="#DDE3E9"/>
</g>
<circle cx="271.435" cy="164.5" r="7" fill="#DDE3E9"/>
<circle cx="271.435" cy="164.5" r="3" fill="#F2F2F2"/>
</g>
<g clip-path="url(#clip12_1_5746)">
<rect x="16" y="286" width="286" height="39" rx="4" fill="white"/>
<g clip-path="url(#clip13_1_5746)">
<rect x="25" y="297.7" width="228" height="5.85" rx="2.925" fill="#DDE3E9"/>
<rect x="25" y="307.45" width="153.041" height="5.85" rx="2.925" fill="#DDE3E9"/>
</g>
<circle cx="271.435" cy="305.5" r="7" fill="#DDE3E9"/>
<circle cx="271.435" cy="305.5" r="3" fill="#F2F2F2"/>
</g>
<g clip-path="url(#clip14_1_5746)">
<rect x="16" y="239" width="286" height="39" rx="4" fill="white"/>
<g clip-path="url(#clip15_1_5746)">
<rect x="25" y="250.7" width="228" height="5.85" rx="2.925" fill="#DDE3E9"/>
<rect x="25" y="260.45" width="153.041" height="5.85" rx="2.925" fill="#DDE3E9"/>
</g>
<circle cx="271.435" cy="258.5" r="7" fill="#DDE3E9"/>
<circle cx="271.435" cy="258.5" r="3" fill="#F2F2F2"/>
</g>
<g clip-path="url(#clip16_1_5746)">
<rect x="16" y="192" width="286" height="39" rx="4" fill="white"/>
<g clip-path="url(#clip17_1_5746)">
<rect x="25" y="203.7" width="228" height="5.85" rx="2.925" fill="#DDE3E9"/>
<rect x="25" y="213.45" width="153.041" height="5.85" rx="2.925" fill="#DDE3E9"/>
</g>
<circle cx="271.435" cy="211.5" r="7" fill="#DDE3E9"/>
<circle cx="271.435" cy="211.5" r="3" fill="#F2F2F2"/>
</g>
</g>
</g>
</g>
<defs>
<clipPath id="clip0_1_5746">
<rect width="396" height="346" fill="white"/>
</clipPath>
<clipPath id="clip1_1_5746">
<rect width="364" height="283" fill="white" transform="translate(16 43)"/>
</clipPath>
<clipPath id="clip2_1_5746">
<rect width="70" height="194" fill="white" transform="translate(310 132)"/>
</clipPath>
<clipPath id="clip3_1_5746">
<rect width="34" height="158" fill="white" transform="translate(328 150)"/>
</clipPath>
<clipPath id="clip4_1_5746">
<rect width="50" height="52" fill="white" transform="translate(320 58)"/>
</clipPath>
<clipPath id="clip5_1_5746">
<rect width="286" height="282" fill="white" transform="translate(16 43)"/>
</clipPath>
<clipPath id="clip6_1_5746">
<rect width="286" height="47" fill="white" transform="translate(16 43)"/>
</clipPath>
<clipPath id="clip7_1_5746">
<rect width="228" height="18.8" fill="white" transform="translate(25 57.1)"/>
</clipPath>
<clipPath id="clip8_1_5746">
<rect width="286" height="39" fill="white" transform="translate(16 98)"/>
</clipPath>
<clipPath id="clip9_1_5746">
<rect width="228" height="15.6" fill="white" transform="translate(25 109.7)"/>
</clipPath>
<clipPath id="clip10_1_5746">
<rect width="286" height="39" fill="white" transform="translate(16 145)"/>
</clipPath>
<clipPath id="clip11_1_5746">
<rect width="228" height="15.6" fill="white" transform="translate(25 156.7)"/>
</clipPath>
<clipPath id="clip12_1_5746">
<rect width="286" height="39" fill="white" transform="translate(16 286)"/>
</clipPath>
<clipPath id="clip13_1_5746">
<rect width="228" height="15.6" fill="white" transform="translate(25 297.7)"/>
</clipPath>
<clipPath id="clip14_1_5746">
<rect width="286" height="39" fill="white" transform="translate(16 239)"/>
</clipPath>
<clipPath id="clip15_1_5746">
<rect width="228" height="15.6" fill="white" transform="translate(25 250.7)"/>
</clipPath>
<clipPath id="clip16_1_5746">
<rect width="286" height="39" fill="white" transform="translate(16 192)"/>
</clipPath>
<clipPath id="clip17_1_5746">
<rect width="228" height="15.6" fill="white" transform="translate(25 203.7)"/>
</clipPath>
</defs>
</svg>
